<svg width="28" height="28" viewBox="0 0 28 28" fill="none" xmlns="http://www.w3.org/2000/svg">
<g filter="url(#filter0_d_9_8)">
<rect width="24" height="24" transform="translate(2 2)" fill="white"/>
<path d="M8.6 20H23V11.2308M18.95 14.4615V11.6923M7.25 14.4615V11.6923M20.6214 18.1538H5.57857C5.25904 18.1538 5 17.8697 5 17.5192V8.63462C5 8.28413 5.25904 8 5.57857 8H20.6214C20.941 8 21.2 8.28413 21.2 8.63462V17.5192C21.2 17.8697 20.941 18.1538 20.6214 18.1538ZM15.8 13.0769C15.8 14.6063 14.5912 15.8462 13.1 15.8462C11.6088 15.8462 10.4 14.6063 10.4 13.0769C10.4 11.5475 11.6088 10.3077 13.1 10.3077C14.5912 10.3077 15.8 11.5475 15.8 13.0769Z" stroke="#3A9F46" stroke-linecap="round" stroke-linejoin="round"/>
</g>
<defs>
<filter id="filter0_d_9_8" x="0" y="0" width="28" height="28" filterUnits="userSpaceOnUse" color-interpolation-filters="sRGB">
<feFlood flood-opacity="0" result="BackgroundImageFix"/>
<feColorMatrix in="SourceAlpha" type="matrix" values="0 0 0 0 0 0 0 0 0 0 0 0 0 0 0 0 0 0 127 0" result="hardAlpha"/>
<feOffset/>
<feGaussianBlur stdDeviation="1"/>
<feComposite in2="hardAlpha" operator="out"/>
<feColorMatrix type="matrix" values="0 0 0 0 0 0 0 0 0 0 0 0 0 0 0 0 0 0 0.1 0"/>
<feBlend mode="normal" in2="BackgroundImageFix" result="effect1_dropShadow_9_8"/>
<feBlend mode="normal" in="SourceGraphic" in2="effect1_dropShadow_9_8" result="shape"/>
</filter>
</defs>
</svg>
