<svg width="28" height="28" viewBox="0 0 28 28" fill="none" xmlns="http://www.w3.org/2000/svg">
<g filter="url(#filter0_d_9_12)">
<rect width="24" height="24" transform="translate(2 2)" fill="white"/>
<path d="M6.82909 10.6423C6.00368 11.6123 5.37382 12.752 5 14.0013C6.15464 17.856 9.74693 20.6667 13.9996 20.6667C14.8871 20.6667 15.7459 20.5442 16.5598 20.3155M8.83892 8.869C10.3199 7.89829 12.0938 7.33333 14.0004 7.33333C18.2531 7.33333 21.8454 10.144 23 13.9987C22.3634 16.1261 20.9844 17.9357 19.1616 19.1307M8.83892 8.869L5.95287 6M8.83892 8.869L12.1036 12.1144M19.1616 19.1307L22.048 22M19.1616 19.1307L15.8972 15.8856M15.8972 15.8856C16.3827 15.403 16.6829 14.7364 16.6829 14C16.6829 12.5272 15.4819 11.3333 14.0004 11.3333C13.2597 11.3333 12.589 11.6318 12.1036 12.1144M15.8972 15.8856L12.1036 12.1144" stroke="#3A9F46" stroke-linecap="round" stroke-linejoin="round"/>
</g>
<defs>
<filter id="filter0_d_9_12" x="0" y="0" width="28" height="28" filterUnits="userSpaceOnUse" color-interpolation-filters="sRGB">
<feFlood flood-opacity="0" result="BackgroundImageFix"/>
<feColorMatrix in="SourceAlpha" type="matrix" values="0 0 0 0 0 0 0 0 0 0 0 0 0 0 0 0 0 0 127 0" result="hardAlpha"/>
<feOffset/>
<feGaussianBlur stdDeviation="1"/>
<feComposite in2="hardAlpha" operator="out"/>
<feColorMatrix type="matrix" values="0 0 0 0 0 0 0 0 0 0 0 0 0 0 0 0 0 0 0.1 0"/>
<feBlend mode="normal" in2="BackgroundImageFix" result="effect1_dropShadow_9_12"/>
<feBlend mode="normal" in="SourceGraphic" in2="effect1_dropShadow_9_12" result="shape"/>
</filter>
</defs>
</svg>
