<svg width="28" height="28" viewBox="0 0 28 28" fill="none" xmlns="http://www.w3.org/2000/svg">
<g filter="url(#filter0_d_9_10)">
<rect width="24" height="24" transform="translate(2 2)" fill="white"/>
<path d="M11.7169 5C11.7696 5 11.8222 5 11.874 5.00497C12.5569 5.00621 13.1747 5.28615 13.6215 5.73798L13.6215 5.73805C14.0771 6.20862 14.3704 6.84055 14.4094 7.54098L14.4098 7.54833V21.0097C14.4098 22.1089 13.5257 22.9999 12.4352 22.9999H12.4347C11.4898 22.9999 10.7 22.3311 10.5058 21.4375L10.5034 21.4243H10.4606C9.59827 21.4236 8.81844 21.0682 8.25682 20.4951L8.25651 20.4948C7.68815 19.9281 7.33613 19.1421 7.33586 18.2732V18.2732C7.33586 18.182 7.33586 18.07 7.34737 17.9523C6.49466 17.5643 5.81944 16.9062 5.41603 16.088L5.40574 16.0649C5.14995 15.5664 5 14.9768 5 14.3519C5 13.8957 5.07993 13.4583 5.22644 13.0532L5.2181 13.0795C5.47783 12.2552 5.9963 11.5763 6.67572 11.1226L6.68915 11.1142C6.63233 10.8992 6.59828 10.6519 6.59537 10.397L6.59534 10.3952C6.59509 10.3809 6.59499 10.3639 6.59499 10.347C6.59499 8.86285 7.62373 7.62087 9.00168 7.30605L9.02243 7.30209C9.13739 6.68778 9.43668 6.15769 9.85924 5.75862L9.86081 5.75718C10.3425 5.29217 10.996 5.00448 11.716 5.00009H11.7169V5ZM13.5886 7.58978C13.5751 6.63065 12.8112 5.85577 11.8629 5.83426H11.7169C10.696 5.86092 9.87028 6.66754 9.8035 7.68333L9.80319 7.6893L9.78179 8.0351L9.44036 8.07574C8.29676 8.21081 7.4178 9.18175 7.4178 10.3597C7.4178 10.3721 7.4179 10.3846 7.41809 10.397V10.3952C7.42559 10.6772 7.47742 10.9447 7.56678 11.1941L7.56126 11.1763L7.66903 11.5031L7.37038 11.6689C6.7204 12.0239 6.23181 12.6088 6.00694 13.313L6.00136 13.3332L5.99393 13.3556C5.88563 13.6524 5.82295 13.9951 5.82295 14.3526C5.82295 14.8436 5.94119 15.3068 6.15057 15.7149L6.14285 15.6983C6.51072 16.4527 7.15097 17.0247 7.93112 17.2907L7.95288 17.2971L8.41115 17.4439L8.19641 17.8776C8.17064 17.9747 8.15581 18.0863 8.15581 18.2013C8.15581 18.2263 8.15651 18.2511 8.15791 18.2757L8.15773 18.2723C8.17465 19.5478 9.19597 20.5772 10.4598 20.5942H11.2841V21.0089C11.2841 21.6501 11.7998 22.1699 12.4359 22.1699C13.0721 22.1699 13.5878 21.6501 13.5878 21.0089L13.5886 7.58978ZM9.61645 13.4634C7.92571 13.3594 6.59358 11.9519 6.59358 10.2308C6.59358 10.193 6.59422 10.1552 6.59549 10.1177L6.59535 10.1232C6.71171 8.49151 7.99608 7.19668 9.60424 7.07956L9.61479 7.07894L9.66332 7.9082C8.45946 7.99583 7.50419 8.95867 7.41771 10.1642L7.41726 10.1721C7.41703 10.1844 7.41691 10.1989 7.41691 10.2134C7.41691 11.4964 8.40424 12.547 9.6549 12.6354L9.6625 12.6358L9.61645 13.4634ZM14.4113 18.6048H13.5886C13.5886 17.0935 12.3731 15.8683 10.8736 15.8683V15.039C12.8274 15.039 14.4114 16.6355 14.4114 18.6049L14.4113 18.6048ZM11.6141 10.3123V9.48301C12.7046 9.48301 13.5886 8.59197 13.5886 7.49278H14.4114C14.4114 9.04994 13.159 10.3123 11.614 10.3123H11.6141ZM16.2831 5C17.0039 5.00422 17.6574 5.29162 18.1402 5.75726L18.1392 5.75631C18.5633 6.15683 18.8626 6.6869 18.9748 7.28371L18.9776 7.30123C20.3762 7.62003 21.405 8.86199 21.405 10.3461C21.405 10.3634 21.4049 10.3806 21.4046 10.3978L21.4046 10.3952C21.4022 10.6535 21.3681 10.9026 21.3062 11.1403L21.3109 11.1192C22.0037 11.5812 22.5222 12.2601 22.7749 13.0587L22.7819 13.0845C22.9201 13.4633 23 13.9007 23 14.3569C23 14.9818 22.8501 15.5714 22.5844 16.0911L22.5943 16.0698C22.1806 16.9112 21.5054 17.5692 20.6774 17.9471L20.6526 17.9573C20.6641 18.0758 20.6641 18.1878 20.6641 18.2782C20.6634 19.1474 20.3108 19.9334 19.7422 20.4994L19.7419 20.4998C19.1798 21.073 18.4 21.4281 17.5378 21.4286H17.4949C17.2968 22.3332 16.5079 23 15.5646 23H15.5631H15.5632C14.4727 23 13.5886 22.109 13.5886 21.0098V7.54835C13.6279 6.84058 13.9213 6.20865 14.3773 5.73749L14.3768 5.73807C14.8236 5.28621 15.4414 5.00622 16.124 5.00503H16.1243C16.1777 5.00503 16.2304 5.00005 16.283 5.00005L16.2831 5ZM17.5378 20.5951C18.8032 20.578 19.8245 19.5486 19.8414 18.2748V18.2732C19.8427 18.252 19.8433 18.2271 19.8433 18.2022C19.8433 18.0871 19.8285 17.9756 19.8007 17.8694L19.8028 17.8784L19.588 17.4447L20.0463 17.298C20.8482 17.0255 21.4885 16.4536 21.8483 15.7174L21.8563 15.6991C22.058 15.3077 22.1762 14.8445 22.1762 14.3534C22.1762 13.9959 22.1136 13.6532 21.9987 13.3358L22.0052 13.3565L21.9978 13.3341C21.7673 12.6097 21.2788 12.0247 20.6437 11.6772L20.6288 11.6698L20.3301 11.5039L20.4379 11.1772C20.5221 10.9453 20.5742 10.6776 20.5818 10.3987L20.5819 10.3951C20.582 10.3838 20.5822 10.3705 20.5822 10.3572C20.5822 9.17927 19.7032 8.20826 18.5703 8.07425L18.5596 8.07319L18.2182 8.03259L18.1968 7.68677C18.1297 6.66503 17.304 5.85839 16.2856 5.83176L16.2831 5.83172H16.1391C15.1887 5.85329 14.4248 6.62819 14.4114 7.58602V21.0097C14.4114 21.6509 14.927 22.1707 15.5632 22.1707C16.1993 22.1707 16.715 21.6509 16.715 21.0097V20.5951H17.5378ZM18.3013 13.4635L18.256 12.6342C19.5144 12.5449 20.5016 11.4941 20.5016 10.2109C20.5016 10.1961 20.5015 10.1813 20.5012 10.1666L20.5013 10.1688C20.4139 8.95573 19.4588 7.99333 18.2631 7.9062L18.2552 7.90574L18.3038 7.07648C19.9222 7.19418 21.2064 8.4886 21.3226 10.1093L21.3232 10.1199C21.3244 10.1527 21.3251 10.1913 21.3251 10.23C21.3251 11.9516 19.9925 13.3595 18.3103 13.463L18.3013 13.4635L18.3013 13.4635ZM14.4114 18.6048H13.5886C13.5886 16.6355 15.1725 15.039 17.1264 15.039V15.8683C15.6269 15.8683 14.4114 17.0935 14.4114 18.6049L14.4114 18.6048ZM16.3859 10.3123C14.841 10.3123 13.5886 9.04992 13.5886 7.49276H14.4114C14.4114 8.59192 15.2954 9.48299 16.3859 9.48299L16.3859 10.3123Z" fill="#3A9F46"/>
</g>
<defs>
<filter id="filter0_d_9_10" x="0" y="0" width="28" height="28" filterUnits="userSpaceOnUse" color-interpolation-filters="sRGB">
<feFlood flood-opacity="0" result="BackgroundImageFix"/>
<feColorMatrix in="SourceAlpha" type="matrix" values="0 0 0 0 0 0 0 0 0 0 0 0 0 0 0 0 0 0 127 0" result="hardAlpha"/>
<feOffset/>
<feGaussianBlur stdDeviation="1"/>
<feComposite in2="hardAlpha" operator="out"/>
<feColorMatrix type="matrix" values="0 0 0 0 0 0 0 0 0 0 0 0 0 0 0 0 0 0 0.1 0"/>
<feBlend mode="normal" in2="BackgroundImageFix" result="effect1_dropShadow_9_10"/>
<feBlend mode="normal" in="SourceGraphic" in2="effect1_dropShadow_9_10" result="shape"/>
</filter>
</defs>
</svg>
