<svg width="28" height="28" viewBox="0 0 28 28" fill="none" xmlns="http://www.w3.org/2000/svg">
<g filter="url(#filter0_d_9_6)">
<rect width="24" height="24" transform="translate(2 2)" fill="white"/>
<path d="M6.77003 9.4108L14.5897 11.6392L22.9844 9.32802M5.6144 12.2245L14.5897 14.6344L22.9844 12.3233M22.9798 9.3111L14.5897 7L6.09355 9.28296M5.84637 12.2851C5.18053 12.0816 4.83597 11.2604 5.07677 10.4508C5.31757 9.64128 6.05252 9.14994 6.71836 9.35342M5.6144 15.407L14.5897 17.8169L22.9844 15.5058M5.84637 15.4676C5.18053 15.2641 4.83597 14.443 5.07677 13.6334C5.31757 12.8238 6.05252 12.3325 6.71836 12.536M5.63001 18.5901L14.6053 21L23 18.6889M5.86202 18.6507C5.19618 18.4472 4.85162 17.626 5.09242 16.8164C5.33322 16.0069 6.06817 15.5155 6.73401 15.719" stroke="#3A9F46" stroke-miterlimit="10" stroke-linecap="round" stroke-linejoin="round"/>
</g>
<defs>
<filter id="filter0_d_9_6" x="0" y="0" width="28" height="28" filterUnits="userSpaceOnUse" color-interpolation-filters="sRGB">
<feFlood flood-opacity="0" result="BackgroundImageFix"/>
<feColorMatrix in="SourceAlpha" type="matrix" values="0 0 0 0 0 0 0 0 0 0 0 0 0 0 0 0 0 0 127 0" result="hardAlpha"/>
<feOffset/>
<feGaussianBlur stdDeviation="1"/>
<feComposite in2="hardAlpha" operator="out"/>
<feColorMatrix type="matrix" values="0 0 0 0 0 0 0 0 0 0 0 0 0 0 0 0 0 0 0.1 0"/>
<feBlend mode="normal" in2="BackgroundImageFix" result="effect1_dropShadow_9_6"/>
<feBlend mode="normal" in="SourceGraphic" in2="effect1_dropShadow_9_6" result="shape"/>
</filter>
</defs>
</svg>
