<svg width="28" height="28" viewBox="0 0 28 28" fill="none" xmlns="http://www.w3.org/2000/svg">
<g filter="url(#filter0_d_9_4)">
<rect width="24" height="24" transform="translate(2 2)" fill="white"/>
<path d="M22.5135 18.8887C16.9997 23.0371 11.4868 23.0371 5.97297 18.8887M7.43243 19.7776L9.37838 12.2221L8.40541 10.4444L6.45946 11.3333L5 9.99994L7.43243 6C12.3479 6.19378 13.2605 8.78485 14.2432 11.3333H20.0811C20.8552 11.3333 21.5977 11.6142 22.1451 12.1143C22.6925 12.6144 23 13.2927 23 13.9999M21.0541 19.7776L19.1081 11.3333M18.1351 21.1109L16.1892 16.6665H12.2973L10.3513 21.1109" stroke="#3A9F46" stroke-linecap="round" stroke-linejoin="round"/>
</g>
<defs>
<filter id="filter0_d_9_4" x="0" y="0" width="28" height="28" filterUnits="userSpaceOnUse" color-interpolation-filters="sRGB">
<feFlood flood-opacity="0" result="BackgroundImageFix"/>
<feColorMatrix in="SourceAlpha" type="matrix" values="0 0 0 0 0 0 0 0 0 0 0 0 0 0 0 0 0 0 127 0" result="hardAlpha"/>
<feOffset/>
<feGaussianBlur stdDeviation="1"/>
<feComposite in2="hardAlpha" operator="out"/>
<feColorMatrix type="matrix" values="0 0 0 0 0 0 0 0 0 0 0 0 0 0 0 0 0 0 0.1 0"/>
<feBlend mode="normal" in2="BackgroundImageFix" result="effect1_dropShadow_9_4"/>
<feBlend mode="normal" in="SourceGraphic" in2="effect1_dropShadow_9_4" result="shape"/>
</filter>
</defs>
</svg>
