<svg width="28" height="28" viewBox="0 0 28 28" fill="none" xmlns="http://www.w3.org/2000/svg">
<g filter="url(#filter0_d_13_208)">
<rect width="24" height="24" transform="translate(2 2)" fill="white"/>
<path d="M19.5946 8.65474C19.3214 8.0059 18.8731 7.56158 18.2916 7.36411C17.6471 7.14548 16.8764 7.23716 16.1689 7.63211C15.7135 7.89306 15.2932 8.21043 14.9078 8.57011C15.0269 7.76611 15.0129 6.948 14.8728 6.15106C14.6626 4.938 13.6258 4.01411 12.4559 4H12.4208C11.2369 4 9.70262 4.93095 8.6868 6.278C8.09131 7.0679 7.87414 7.91421 8.07029 8.66885C8.26645 9.40937 8.83392 9.99474 9.70963 10.3685C10.0529 10.5096 10.3892 10.6365 10.7044 10.7282C10.3962 10.8552 10.0949 10.9962 9.8007 11.1655C9.31731 11.4476 8.46962 12.0541 8.23843 12.9992C8.09131 13.6127 8.22442 14.2475 8.63075 14.8893C9.72364 16.596 11.2018 16.8288 11.9304 16.8288C11.9935 16.8288 12.0495 16.8288 12.0986 16.8217C13.6608 16.7441 14.4174 16.0036 14.5505 14.4238C14.5786 14.0994 14.5926 13.7891 14.5996 13.4717C15.2021 14.9104 15.3842 16.4832 15.132 18.0206C14.5856 21.5117 12.9533 23.1973 12.9322 23.2184C12.7501 23.3877 12.7361 23.6698 12.9042 23.8532C13.0724 24.0365 13.3526 24.0507 13.5347 23.8814C13.5417 23.8743 13.5557 23.8602 13.5628 23.8532C13.6398 23.7756 15.4123 21.9631 16.0147 18.1546C16.2739 16.5819 16.1198 14.9598 15.5594 13.4646C15.7205 13.5704 15.8536 13.6551 15.9447 13.7115C16.351 13.9583 17.3879 14.5014 18.3476 14.1981C18.852 14.0359 19.2444 13.6551 19.4826 13.0909C20.1341 11.5957 20.1691 10.0159 19.5946 8.65474ZM18.6839 12.7453C18.5438 13.0697 18.3546 13.2672 18.1024 13.3447C17.612 13.507 16.9185 13.246 16.4351 12.9498C15.6995 12.4984 14.7047 11.7509 14.3054 11.1232C14.1722 10.9116 13.899 10.8552 13.6889 10.9821C13.5277 11.0879 13.4507 11.2854 13.4927 11.4687C13.7589 12.5478 13.7589 13.3659 13.6748 14.3462C13.5768 15.4817 13.1844 15.8696 12.0635 15.926C11.5661 15.9542 10.3191 15.8555 9.38736 14.4026C9.10714 13.9724 9.02307 13.5775 9.10714 13.2107C9.25426 12.5901 9.88477 12.1529 10.2421 11.9483C10.9356 11.5463 11.6012 11.2924 12.9112 11.1725C13.1564 11.1514 13.3386 10.9327 13.3176 10.6859C13.2965 10.4673 13.1214 10.291 12.9042 10.2769C11.9234 10.1711 10.9636 9.91717 10.0529 9.53632C9.44341 9.28243 9.05109 8.90159 8.93199 8.43611C8.80589 7.95653 8.96702 7.38527 9.39437 6.82106C10.3401 5.56569 11.6572 4.89569 12.4208 4.89569H12.4418C13.1774 4.90274 13.857 5.52337 13.9901 6.30621C14.1372 7.15958 14.2493 8.47137 13.5487 9.96653C13.4437 10.1922 13.5347 10.4602 13.7589 10.566C13.9341 10.6506 14.1442 10.6083 14.2773 10.4673C15.2091 9.4799 15.9237 8.78874 16.6032 8.41495C17.0866 8.14695 17.605 8.06937 18.0044 8.21043C18.3406 8.32327 18.5998 8.59832 18.775 9.00737C19.2514 10.1428 19.2233 11.4687 18.6839 12.7453Z" fill="#3A9F46"/>
</g>
<defs>
<filter id="filter0_d_13_208" x="0" y="0" width="28" height="28" filterUnits="userSpaceOnUse" color-interpolation-filters="sRGB">
<feFlood flood-opacity="0" result="BackgroundImageFix"/>
<feColorMatrix in="SourceAlpha" type="matrix" values="0 0 0 0 0 0 0 0 0 0 0 0 0 0 0 0 0 0 127 0" result="hardAlpha"/>
<feOffset/>
<feGaussianBlur stdDeviation="1"/>
<feComposite in2="hardAlpha" operator="out"/>
<feColorMatrix type="matrix" values="0 0 0 0 0 0 0 0 0 0 0 0 0 0 0 0 0 0 0.1 0"/>
<feBlend mode="normal" in2="BackgroundImageFix" result="effect1_dropShadow_13_208"/>
<feBlend mode="normal" in="SourceGraphic" in2="effect1_dropShadow_13_208" result="shape"/>
</filter>
</defs>
</svg>
