<svg width="28" height="28" viewBox="0 0 28 28" fill="none" xmlns="http://www.w3.org/2000/svg">
<g filter="url(#filter0_d_9_18)">
<rect width="24" height="24" transform="translate(2 2)" fill="white"/>
<ellipse cx="10.3088" cy="6.53658" rx="1.54412" ry="1.53659" stroke="#3A9F46"/>
<path d="M18.4706 20.2238C17.6876 21.6483 15.9358 22.4277 14.2142 22.0091C12.2157 21.5232 11.0147 19.6069 11.5318 17.7289C11.9563 16.187 13.407 15.1504 15.0187 15.0976" stroke="#3A9F46" stroke-linecap="round" stroke-linejoin="round"/>
<path d="M16.7059 12.4634V17.9062H20.0806L22 20.8049" stroke="#3A9F46" stroke-linecap="round" stroke-linejoin="round"/>
<path d="M13.1765 13.2976V11.5854C13.1765 10.6195 12.3824 9.82927 11.4118 9.82927H8.76471C7.79412 9.82927 7 10.6195 7 11.5854V15.9756C7 16.4585 7.39706 16.8537 7.88235 16.8537H8.76471V22.122C8.76471 22.6049 9.16176 23 9.64706 23H11.8529" stroke="#3A9F46" stroke-linecap="round"/>
</g>
<defs>
<filter id="filter0_d_9_18" x="0" y="0" width="28" height="28" filterUnits="userSpaceOnUse" color-interpolation-filters="sRGB">
<feFlood flood-opacity="0" result="BackgroundImageFix"/>
<feColorMatrix in="SourceAlpha" type="matrix" values="0 0 0 0 0 0 0 0 0 0 0 0 0 0 0 0 0 0 127 0" result="hardAlpha"/>
<feOffset/>
<feGaussianBlur stdDeviation="1"/>
<feComposite in2="hardAlpha" operator="out"/>
<feColorMatrix type="matrix" values="0 0 0 0 0 0 0 0 0 0 0 0 0 0 0 0 0 0 0.1 0"/>
<feBlend mode="normal" in2="BackgroundImageFix" result="effect1_dropShadow_9_18"/>
<feBlend mode="normal" in="SourceGraphic" in2="effect1_dropShadow_9_18" result="shape"/>
</filter>
</defs>
</svg>
