<svg width="28" height="28" viewBox="0 0 28 28" fill="none" xmlns="http://www.w3.org/2000/svg">
<g filter="url(#filter0_d_9_2)">
<rect width="24" height="24" transform="translate(2 2)" fill="white"/>
<path d="M15.8 12.2H15.3C15.3 12.4761 15.5239 12.7 15.8 12.7V12.2ZM12.2 12.2V12.7C12.4761 12.7 12.7 12.4761 12.7 12.2H12.2ZM12.2 15.8H12.7C12.7 15.5239 12.4761 15.3 12.2 15.3V15.8ZM15.8 15.8V15.3C15.5239 15.3 15.3 15.5239 15.3 15.8H15.8ZM19.9 15.2V12.8H18.9V15.2H19.9ZM19.9 12.8C19.9 12.1925 19.4075 11.7 18.8 11.7V12.7C18.8552 12.7 18.9 12.7448 18.9 12.8H19.9ZM18.8 11.7H15.8V12.7H18.8V11.7ZM16.3 12.2V9.2H15.3V12.2H16.3ZM16.3 9.2C16.3 8.5925 15.8075 8.1 15.2 8.1V9.1C15.2552 9.1 15.3 9.14477 15.3 9.2H16.3ZM15.2 8.1H12.8V9.1H15.2V8.1ZM12.8 8.1C12.1925 8.1 11.7 8.59249 11.7 9.2H12.7C12.7 9.14477 12.7448 9.1 12.8 9.1V8.1ZM11.7 9.2V12.2H12.7V9.2H11.7ZM12.2 11.7H9.2V12.7H12.2V11.7ZM9.2 11.7C8.59249 11.7 8.1 12.1925 8.1 12.8H9.1C9.1 12.7448 9.14477 12.7 9.2 12.7V11.7ZM8.1 12.8V15.2H9.1V12.8H8.1ZM8.1 15.2C8.1 15.8075 8.5925 16.3 9.2 16.3V15.3C9.14477 15.3 9.1 15.2552 9.1 15.2H8.1ZM9.2 16.3H12.2V15.3H9.2V16.3ZM11.7 15.8V18.8H12.7V15.8H11.7ZM11.7 18.8C11.7 19.4075 12.1925 19.9 12.8 19.9V18.9C12.7448 18.9 12.7 18.8552 12.7 18.8H11.7ZM12.8 19.9H15.2V18.9H12.8V19.9ZM15.2 19.9C15.8075 19.9 16.3 19.4075 16.3 18.8H15.3C15.3 18.8552 15.2552 18.9 15.2 18.9V19.9ZM16.3 18.8V15.8H15.3V18.8H16.3ZM15.8 16.3H18.8V15.3H15.8V16.3ZM18.8 16.3C19.4075 16.3 19.9 15.8075 19.9 15.2H18.9C18.9 15.2552 18.8552 15.3 18.8 15.3V16.3ZM22.5 14C22.5 18.6944 18.6944 22.5 14 22.5V23.5C19.2467 23.5 23.5 19.2467 23.5 14H22.5ZM14 22.5C9.30558 22.5 5.5 18.6944 5.5 14H4.5C4.5 19.2467 8.75329 23.5 14 23.5V22.5ZM5.5 14C5.5 9.30558 9.30558 5.5 14 5.5V4.5C8.75329 4.5 4.5 8.75329 4.5 14H5.5ZM14 5.5C18.6944 5.5 22.5 9.30558 22.5 14H23.5C23.5 8.75329 19.2467 4.5 14 4.5V5.5Z" fill="#3A9F46"/>
</g>
<defs>
<filter id="filter0_d_9_2" x="0" y="0" width="28" height="28" filterUnits="userSpaceOnUse" color-interpolation-filters="sRGB">
<feFlood flood-opacity="0" result="BackgroundImageFix"/>
<feColorMatrix in="SourceAlpha" type="matrix" values="0 0 0 0 0 0 0 0 0 0 0 0 0 0 0 0 0 0 127 0" result="hardAlpha"/>
<feOffset/>
<feGaussianBlur stdDeviation="1"/>
<feComposite in2="hardAlpha" operator="out"/>
<feColorMatrix type="matrix" values="0 0 0 0 0 0 0 0 0 0 0 0 0 0 0 0 0 0 0.1 0"/>
<feBlend mode="normal" in2="BackgroundImageFix" result="effect1_dropShadow_9_2"/>
<feBlend mode="normal" in="SourceGraphic" in2="effect1_dropShadow_9_2" result="shape"/>
</filter>
</defs>
</svg>
